<?xml version="1.0" encoding="UTF-8"?>
<svg id="Livello_2" data-name="Livello 2" xmlns="http://www.w3.org/2000/svg" viewBox="0 0 805.98 207.07">
  <defs>
    <style>
      .cls-1 {
        fill: #89846e;
      }
    </style>
  </defs>
  <g id="Livello_1-2" data-name="Livello 1">
    <g>
      <g>
        <path class="cls-1" d="M83.17,206.43h0V1.08h0c41.42,0,75,33.58,75,75v55.35c0,41.42-33.58,75-75,75Z"/>
        <path class="cls-1" d="M0,206.43h75s0-205.35,0-205.35h0C33.58,1.08,0,34.65,0,76.08v130.35Z"/>
      </g>
      <path class="cls-1" d="M254.91,207.01h-75V.49h0c41.42,0,75,33.58,75,75v131.52Z"/>
    </g>
    <g>
      <g>
        <path class="cls-1" d="M722.81,207.07h-75V.43h0c41.42,0,75,33.58,75,75v131.65Z"/>
        <path class="cls-1" d="M730.98,207.07h75s0-206.65,0-206.65h0c-41.42,0-75,33.58-75,75v131.65Z"/>
      </g>
      <g>
        <path class="cls-1" d="M288,206.82h75s0-206.82,0-206.82h0c-41.42,0-75,33.58-75,75v131.82Z"/>
        <path class="cls-1" d="M446.17,206.82h-75s0-75,0-75h0c41.42,0,75,33.58,75,75h0Z"/>
        <path class="cls-1" d="M446.17,123.65h-75S371.17,0,371.17,0h0c41.42,0,75,33.58,75,75v48.65Z"/>
      </g>
      <g>
        <path class="cls-1" d="M542.91,206.82h0V.68s0,0,0,0c-41.42,0-75,33.58-75,75v56.14c0,41.42,33.58,75,75,75Z"/>
        <path class="cls-1" d="M551.08,206.82h0V.68h0c41.42,0,75,33.58,75,75v56.14c0,41.42-33.58,75-75,75Z"/>
      </g>
    </g>
  </g>
</svg>